HIERARCHY
ROOT hip
{
	OFFSET 0.000000 0.000000 0.000000 
	CHANNELS 6 Xposition Yposition Zposition Zrotation Xrotation Yrotation
	JOINT abdomen
	{
		OFFSET 0.000000 3.402643 0.000000 
		CHANNELS 3 Zrotation Xrotation Yrotation
		JOINT chest
		{
			OFFSET 0.000000 8.438565 -0.680529 
			CHANNELS 3 Zrotation Xrotation Yrotation
			JOINT neck
			{
				OFFSET 0.000000 10.207942 -0.272212 
				CHANNELS 3 Zrotation Xrotation Yrotation
				JOINT head
				{
					OFFSET 0.000000 3.130431 0.000000 
					CHANNELS 3 Zrotation Xrotation Yrotation
					End Site
					{
						OFFSET 0.000000 3.130435 0.000000 
					}
				}
			}
			JOINT lCollar
			{
				OFFSET 3.470700 6.669187 -0.816635 
				CHANNELS 3 Zrotation Xrotation Yrotation
				JOINT lShldr
				{
					OFFSET 3.198488 0.000000 0.000000 
					CHANNELS 3 Zrotation Xrotation Yrotation
					JOINT lForeArm
					{
						OFFSET 10.139888 0.000000 0.000000 
						CHANNELS 3 Zrotation Xrotation Yrotation
						JOINT lHand
						{
							OFFSET 8.370511 0.000000 0.000000 
							CHANNELS 3 Zrotation Xrotation Yrotation
							End Site
							{
								OFFSET 4.083176 0.000000 0.000000 
							}
						}
					}
				}
			}
			JOINT rCollar
			{
				OFFSET -3.470700 6.669187 -0.816635 
				CHANNELS 3 Zrotation Xrotation Yrotation
				JOINT rShldr
				{
					OFFSET -3.198488 0.000000 0.000000 
					CHANNELS 3 Zrotation Xrotation Yrotation
					JOINT rForeArm
					{
						OFFSET -10.139888 0.000000 0.000000 
						CHANNELS 3 Zrotation Xrotation Yrotation
						JOINT rHand
						{
							OFFSET -8.370511 0.000000 0.000000 
							CHANNELS 3 Zrotation Xrotation Yrotation
							End Site
							{
								OFFSET -4.083176 0.000000 0.000000 
							}
						}
					}
				}
			}
		}
	}
	JOINT lThigh
	{
		OFFSET 5.308129 -1.633274 1.361059 
		CHANNELS 3 Zrotation Xrotation Yrotation
		JOINT lShin
		{
			OFFSET -2.041588 -20.007561 0.000000 
			CHANNELS 3 Zrotation Xrotation Yrotation
			JOINT lFoot
			{
				OFFSET 0.000000 -19.190928 -1.224953 
				CHANNELS 3 Zrotation Xrotation Yrotation
				End Site
				{
					OFFSET 0.000000 -2.449906 4.627600 
				}
			}
		}
	}
	JOINT rThigh
	{
		OFFSET -5.308129 -1.633274 1.361059 
		CHANNELS 3 Zrotation Xrotation Yrotation
		JOINT rShin
		{
			OFFSET 2.041588 -20.007561 0.000000 
			CHANNELS 3 Zrotation Xrotation Yrotation
			JOINT rFoot
			{
				OFFSET 0.000000 -19.190928 -1.224953 
				CHANNELS 3 Zrotation Xrotation Yrotation
				End Site
				{
					OFFSET 0.000000 -2.449906 4.627600 
				}
			}
		}
	}
}
MOTION
Frames: 8
Frame Time: 0.016667
-2.002590 42.552303 -2.218970 -2.421880 5.605470 1.200970 -2.034960 15.173300 2.094410 2.114950 -17.518700 3.211290 -1.666950 6.498460 -3.235990 3.708140 7.148180 -1.977380 -1.998780 -0.069785 1.998780 -25.931999 -47.975399 38.452702 0.766120 -3.893930 -147.953995 -0.070685 27.047001 0.043722 1.998780 -0.069785 -1.998780 79.201202 -5.352180 -9.947810 1.492450 0.819590 60.183300 0.046606 51.855999 0.011698 0.757180 -15.058700 -0.487002 2.731160 33.864799 1.118900 -1.462530 0.297186 -20.210699 2.383650 -28.572500 0.931451 -2.346940 42.378101 -1.686320 0.896285 -7.549690 4.618070 
-2.269170 42.459404 -1.688160 -2.021480 6.445310 3.007610 -2.405070 15.656700 1.970240 1.631540 -17.704201 2.641810 -1.508120 7.018040 -3.250970 3.777920 7.528870 -1.992160 -1.998780 -0.069785 1.998780 -24.612499 -49.540100 39.956001 0.795247 -3.880650 -146.751007 -0.070837 26.930000 0.044031 1.998780 -0.069785 -1.998780 80.030800 -6.601960 -10.007000 1.414800 0.719332 56.573299 0.046638 51.846001 0.011651 1.416270 -17.539900 1.228270 2.660950 38.605499 1.287380 -1.401770 0.469032 -22.529600 2.164120 -26.506800 -1.157460 -2.366740 39.198601 -1.608860 0.995213 -7.028990 5.293240 
-2.621710 41.946903 -1.364950 -2.050780 7.441400 4.736150 -2.894360 15.336400 2.074510 1.366880 -18.321199 2.528940 -0.999177 7.295980 -3.620430 4.024390 7.762590 -2.195170 -1.998780 -0.069785 1.998780 -21.198400 -51.042500 40.553902 0.837608 -3.860010 -144.981995 -0.072893 25.260000 0.048351 1.998780 -0.069785 -1.998780 80.912697 -7.544090 -10.497900 1.327240 0.620166 52.807098 0.054757 49.286999 0.000146 2.220410 -22.045099 1.626630 2.436620 47.628300 1.674760 -1.616060 -0.602570 -20.204700 3.022210 -25.548901 -0.260159 -2.320680 36.641201 -1.597970 0.388979 -11.650900 1.034900 
-2.898820 41.498405 -1.097430 -2.021480 7.246100 6.650210 -2.789870 14.566700 2.048750 1.695130 -18.837299 2.630300 -1.106390 7.758620 -3.967710 4.182350 7.957440 -2.450530 -1.998780 -0.069785 1.998780 -19.542000 -51.772701 39.580299 0.879780 -3.837800 -143.192001 -0.074271 24.059000 0.051383 1.998780 -0.069785 -1.998780 80.490402 -7.322010 -11.419400 1.235860 0.529302 49.138401 0.056243 45.088001 -0.002651 2.132000 -25.711901 -0.822670 1.826190 60.258499 2.462550 -3.809990 -9.437540 -15.947000 3.365960 -24.448700 0.742836 -2.349250 35.893299 -1.558510 -0.274559 -15.130900 -1.216050 
-3.078910 41.133503 -1.049780 -3.808590 5.107420 7.050230 -3.279310 13.493100 2.556070 2.892380 -18.674000 3.565290 -1.765790 8.072110 -4.276040 4.044940 8.065250 -2.655700 -1.998780 -0.069785 1.998780 -20.058599 -52.876499 37.772701 0.910658 -3.820470 -141.862000 -0.085679 22.417999 0.055153 1.998780 -0.069785 -1.998780 79.752701 -6.582030 -11.068900 1.101930 0.414921 44.123100 0.060157 43.544998 -0.008541 4.178710 -28.452499 -3.062890 -0.341196 74.508797 4.817130 -3.774590 -13.433100 -12.680500 6.018400 -21.886499 1.036990 -2.310730 34.728500 -1.568610 -0.721609 -15.031300 -2.912260 
-3.103370 41.104305 -1.028890 -6.875000 2.597650 6.679600 -4.208680 12.827500 3.091530 4.308560 -18.157900 4.344320 -2.754030 8.122470 -4.147080 3.710360 8.036850 -2.602790 -1.998780 -0.069785 1.998780 -21.023399 -53.906300 37.550098 0.924807 -3.812200 -141.246994 -0.086514 21.587999 0.057164 1.998780 -0.069785 -1.998780 78.873596 -6.893280 -9.313930 0.917062 0.286510 37.712101 0.056697 48.612999 -0.002696 7.277000 -30.624901 -4.952020 -20.129900 86.875702 24.742100 -3.080060 -13.076000 -11.150300 9.527099 -18.517200 0.544308 -2.306440 32.617802 -1.509550 -0.399662 -14.444500 -2.169490 
-3.172500 41.500206 -0.911045 -5.615230 1.914060 7.197210 -3.748040 12.662700 2.870250 4.009560 -17.870199 4.131070 -2.636670 8.257250 -4.264070 3.680610 7.939270 -2.649490 -1.998780 -0.069785 1.998780 -23.623301 -53.509499 36.526001 0.921229 -3.814320 -141.403000 -0.089684 22.750000 0.064927 1.998780 -0.069785 -1.998780 79.068100 -10.573900 -8.215540 0.769862 0.204314 32.910999 0.027281 56.680000 0.037271 3.400480 -33.110699 -9.481510 -157.947998 85.015297 162.753998 -2.647230 -11.709500 -10.364600 8.062199 -16.554800 -0.632001 -2.376430 30.390900 -1.366340 -0.254295 -13.346100 -1.566360 
-3.240930 42.034405 -0.745566 -4.853510 2.158200 7.988110 -3.787850 13.081900 2.677970 3.339350 -17.716400 3.584090 -1.741740 9.090160 -4.431160 3.868430 8.280590 -2.721450 -1.998780 -0.069785 1.998780 -25.412800 -52.306000 36.460098 0.914918 -3.818000 -141.677002 -0.074173 24.146999 0.051163 1.998780 -0.069785 -1.998780 80.024399 -13.188600 -8.138460 0.711253 0.175918 31.056900 0.026410 56.865002 0.038379 -1.011970 -36.022400 -14.888900 -163.867996 81.660202 168.794006 -3.388740 -12.290500 -12.326700 7.251199 -15.072300 -0.637540 -2.356010 27.217800 -1.278340 -0.396988 -11.504100 -1.968260 
